<?xml version="1.0" encoding="UTF-8"?>
<svg xmlns="http://www.w3.org/2000/svg" viewBox="0 0 24 24" width="24" height="24">
  <path fill="#198754" d="M19.44,9.03L15.41,5H11.4L10.9,4.5L11.4,4H14V2H9.41L8,3.41V4.58L9.4,6H8.75L5,9.75V10.16L9.82,15H15.22L16.22,14H20.84L19.44,9.03M6.5,10.5A2.5,2.5 0 0,0 4,13A2.5,2.5 0 0,0 6.5,15.5A2.5,2.5 0 0,0 9,13A2.5,2.5 0 0,0 6.5,10.5M17.5,10.5A2.5,2.5 0 0,0 15,13A2.5,2.5 0 0,0 17.5,15.5A2.5,2.5 0 0,0 20,13A2.5,2.5 0 0,0 17.5,10.5M19.41,7.5L20.29,10.5H16.59L16,11H11L7.46,7.5H19.41Z" />
</svg>
